# xmcd
# 
# Track frame offsets:
#     150
#     69261
#     146872
#     211054
# 
# Disc length: 3801
# 
# Revision: 0
# Processed by: cddbd v1.5.2PL0 Copyright (c) Steve Scherf et al.
# Submitted via: fre:ac v1.0.17
# 
DISCID=360ed704
DTITLE=Сергей Коновалов - Грустная Осень
DYEAR=2011
DGENRE=
TTITLE0=Song I
TTITLE1=Song II
TTITLE2=Song III
TTITLE3=Song IV
EXTD=
EXTT0=
EXTT1=
EXTT2=
EXTT3=
PLAYORDER=
